<svg id="Слой_1" data-name="Слой 1" xmlns="http://www.w3.org/2000/svg" viewBox="0 0 210.85 222.14"><defs><style>.cls-1{fill:#202121;}</style></defs><path class="cls-1" d="M168.78,218.06c-42.59,13-118-5.22-148.7-50.46C-25,101,13.16,10,93.76.76c47-5.39,89.44,18.14,109.09,63.6,18.89,43.73,7,90.8-30.43,122.48-6.34,5.37-14,9.19-21.53,14,1.73,4.81,10.93,8.87,18,11.35A3.07,3.07,0,0,1,168.78,218.06ZM80.6,98.2a22.73,22.73,0,0,0-6.47-8.9,26.9,26.9,0,0,0-10.07-5.09A49.08,49.08,0,0,0,51,82.59q-3.39,0-8.13.28A76.77,76.77,0,0,0,33.76,84v54.6a64.11,64.11,0,0,0,8.9,1.18q4.53.28,7.93.28A47,47,0,0,0,64,138.24a27.25,27.25,0,0,0,10.15-5.34,23.42,23.42,0,0,0,6.43-9,32.74,32.74,0,0,0,2.26-12.7A33.72,33.72,0,0,0,80.6,98.2ZM46.38,93.59a25.49,25.49,0,0,1,2.59-.2c.92,0,1.81,0,2.67,0q9.47,0,13.83,4.53t4.37,13.34q0,8.41-4.57,13.19t-14,4.77c-1.08,0-2,0-2.79,0s-1.47-.07-2.07-.12ZM83.92,83.24V94h16.9v45.3h12.62V94h16.91V83.24Zm86.71,55.89a29.32,29.32,0,0,0,7.52-2.91l-3.47-10.11-2.35,1a19.32,19.32,0,0,1-3,1,36.67,36.67,0,0,1-3.89.77,33.27,33.27,0,0,1-4.93.32,17.77,17.77,0,0,1-7.44-1.41,13.3,13.3,0,0,1-5-3.85,15.43,15.43,0,0,1-2.75-5.78,29.76,29.76,0,0,1-.85-7.24,23.34,23.34,0,0,1,1.3-8.25,15.51,15.51,0,0,1,3.44-5.54,12.71,12.71,0,0,1,4.93-3.11,17.17,17.17,0,0,1,5.7-1,28.61,28.61,0,0,1,7.81,1,30.09,30.09,0,0,1,6,2.34l3.64-10.19c-.44-.27-1.14-.65-2.11-1.13a24.56,24.56,0,0,0-3.64-1.42,41.28,41.28,0,0,0-5.09-1.21,36.66,36.66,0,0,0-6.47-.53,32.77,32.77,0,0,0-11.41,1.94,25,25,0,0,0-9.06,5.71,26.66,26.66,0,0,0-6,9.22,33.33,33.33,0,0,0-2.18,12.41q0,14,7.16,21.6t20.83,7.6A43.92,43.92,0,0,0,170.63,139.13Z"/></svg>