<svg id="Слой_1" data-name="Слой 1" xmlns="http://www.w3.org/2000/svg" viewBox="0 0 211.7 225.16"><defs><style>.cls-1{fill:#fff;}</style></defs><path class="cls-1" d="M168.63,219.56c-42.59,13-118-5.21-148.7-50.45C-25.18,102.55,13,11.51,93.61,2.27c47-5.4,89.44,18.14,109.09,63.6,18.9,43.72,7,90.8-30.43,122.48-6.34,5.36-14,9.19-21.53,14,1.73,4.82,10.93,8.88,18,11.36A3.06,3.06,0,0,1,168.63,219.56ZM80.45,99.71A22.63,22.63,0,0,0,74,90.81a26.7,26.7,0,0,0-10.07-5.1A49.43,49.43,0,0,0,50.85,84.1q-3.41,0-8.13.28a74.27,74.27,0,0,0-9.1,1.09v54.6a63.71,63.71,0,0,0,8.9,1.18c3,.18,5.66.28,7.92.28a47.31,47.31,0,0,0,13.43-1.78A27.54,27.54,0,0,0,74,134.41a23.42,23.42,0,0,0,6.43-9,32.73,32.73,0,0,0,2.27-12.7A33.67,33.67,0,0,0,80.45,99.71ZM46.24,95.1a22.9,22.9,0,0,1,2.58-.2c.92,0,1.81-.05,2.67-.05q9.46,0,13.84,4.53c2.91,3,4.36,7.47,4.36,13.35q0,8.42-4.57,13.19t-14,4.77c-1.08,0-2,0-2.79,0s-1.47-.07-2.06-.12ZM83.77,84.74V95.5h16.91v45.3h12.61V95.5H130.2V84.74Zm86.72,55.9a29.47,29.47,0,0,0,7.52-2.91l-3.48-10.11-2.35,1a20.44,20.44,0,0,1-3,1,37,37,0,0,1-3.88.77,34.83,34.83,0,0,1-4.94.32,17.6,17.6,0,0,1-7.44-1.42,13.06,13.06,0,0,1-5-3.84,15.21,15.21,0,0,1-2.75-5.78,29.28,29.28,0,0,1-.85-7.24,23.28,23.28,0,0,1,1.29-8.25,15.43,15.43,0,0,1,3.44-5.54A12.93,12.93,0,0,1,154,95.58a17.47,17.47,0,0,1,5.71-1,29,29,0,0,1,7.8,1,30.7,30.7,0,0,1,6,2.35l3.64-10.19q-.64-.4-2.1-1.14a26.3,26.3,0,0,0-3.64-1.41,41.91,41.91,0,0,0-5.1-1.21,36.58,36.58,0,0,0-6.47-.53,32.82,32.82,0,0,0-11.41,1.94,25.29,25.29,0,0,0-9.06,5.7,26.69,26.69,0,0,0-6,9.23,33.05,33.05,0,0,0-2.19,12.41q0,14,7.16,21.6t20.83,7.6A44.06,44.06,0,0,0,170.49,140.64Z"/></svg>