<svg id="Слой_1" data-name="Слой 1" xmlns="http://www.w3.org/2000/svg" viewBox="0 0 635.52 222.14"><defs><style>.cls-1{fill:#202121;}</style></defs><path class="cls-1" d="M299.69,73.09A35.56,35.56,0,0,1,297.2,87a26.12,26.12,0,0,1-7.05,9.84,29.41,29.41,0,0,1-11,5.86,50,50,0,0,1-14.23,1.9q-3.74,0-8.43-.31a57.37,57.37,0,0,1-9-1.28V43.29a54.27,54.27,0,0,1,9-1.24q4.79-.27,8.51-.27A51.52,51.52,0,0,1,279.2,43.6a29,29,0,0,1,10.95,5.68A25.3,25.3,0,0,1,297.2,59,36,36,0,0,1,299.69,73.09Zm-41,21.56c.65.06,1.51.1,2.57.13s2.51,0,4.35,0q11.26,0,16.81-5.73t5.54-16q0-10.45-5.41-16.05T265.8,51.45a64.06,64.06,0,0,0-7.09.27Z"/><path class="cls-1" d="M322.75,56.33a26.2,26.2,0,0,1,9,1.33,14.35,14.35,0,0,1,5.81,3.73,13.86,13.86,0,0,1,3.1,5.81,28.4,28.4,0,0,1,.93,7.49v28.12q-2.48.52-7.49,1.28a75.49,75.49,0,0,1-11.31.76,34.11,34.11,0,0,1-7.63-.8,16.12,16.12,0,0,1-5.9-2.57,12.2,12.2,0,0,1-3.81-4.61,16,16,0,0,1-1.38-7,13.47,13.47,0,0,1,1.56-6.74,12.64,12.64,0,0,1,4.21-4.48A18.25,18.25,0,0,1,316,76.15,34.5,34.5,0,0,1,327,75.62a34.34,34.34,0,0,1,4.17.76V74.6a13.76,13.76,0,0,0-.45-3.55,7.06,7.06,0,0,0-4.48-5,12.47,12.47,0,0,0-4.56-.71,39.88,39.88,0,0,0-6.83.53,29.91,29.91,0,0,0-5.06,1.24l-1.33-8.69A42.24,42.24,0,0,1,314.41,57,46.87,46.87,0,0,1,322.75,56.33Zm.89,40a39.59,39.59,0,0,0,7.54-.53V83.92a20.89,20.89,0,0,0-2.58-.54,24.86,24.86,0,0,0-3.72-.26,25.83,25.83,0,0,0-3.59.26,11.39,11.39,0,0,0-3.29,1,6,6,0,0,0-2.35,2,5.6,5.6,0,0,0-.88,3.24c0,2.55.8,4.3,2.39,5.28A12.34,12.34,0,0,0,323.64,96.33Z"/><path class="cls-1" d="M349.62,45.24l10.73-1.77v14h16.5v9h-16.5V85.33q0,5.6,1.77,8t6,2.39a19.31,19.31,0,0,0,5.18-.62,35.7,35.7,0,0,0,3.6-1.15l1.77,8.51a38.63,38.63,0,0,1-4.88,1.64,26.14,26.14,0,0,1-7.09.85,22.62,22.62,0,0,1-8.3-1.33,12.29,12.29,0,0,1-5.28-3.86,15.32,15.32,0,0,1-2.74-6.12,37.58,37.58,0,0,1-.8-8.21Z"/><path class="cls-1" d="M401.92,56.33a26.2,26.2,0,0,1,9,1.33,14.35,14.35,0,0,1,5.81,3.73,13.86,13.86,0,0,1,3.1,5.81,28.4,28.4,0,0,1,.93,7.49v28.12q-2.48.52-7.49,1.28a75.49,75.49,0,0,1-11.31.76,34.11,34.11,0,0,1-7.63-.8,16,16,0,0,1-5.9-2.57,12,12,0,0,1-3.81-4.61,16,16,0,0,1-1.38-7,13.57,13.57,0,0,1,1.55-6.74A12.67,12.67,0,0,1,389,78.64a18.25,18.25,0,0,1,6.16-2.49,34.5,34.5,0,0,1,11.05-.53,33.85,33.85,0,0,1,4.16.76V74.6a13.76,13.76,0,0,0-.44-3.55,7.06,7.06,0,0,0-4.48-5,12.5,12.5,0,0,0-4.57-.71,40,40,0,0,0-6.83.53,29.76,29.76,0,0,0-5,1.24l-1.33-8.69A42.24,42.24,0,0,1,393.58,57,46.87,46.87,0,0,1,401.92,56.33Zm.89,40a39.4,39.4,0,0,0,7.53-.53V83.92a20.65,20.65,0,0,0-2.57-.54,24.86,24.86,0,0,0-3.72-.26,26,26,0,0,0-3.6.26,11.42,11.42,0,0,0-3.28,1,6,6,0,0,0-2.35,2,5.6,5.6,0,0,0-.88,3.24c0,2.55.79,4.3,2.39,5.28A12.32,12.32,0,0,0,402.81,96.33Z"/><path class="cls-1" d="M466.63,42.4v9.67H447v51.8h-10.5V52.07h-18.9V42.4Z"/><path class="cls-1" d="M482.72,56.33a26.2,26.2,0,0,1,9,1.33,14.35,14.35,0,0,1,5.81,3.73,13.86,13.86,0,0,1,3.1,5.81,28.4,28.4,0,0,1,.93,7.49v28.12q-2.47.52-7.49,1.28a75.49,75.49,0,0,1-11.31.76,34.11,34.11,0,0,1-7.63-.8,16.12,16.12,0,0,1-5.9-2.57,12.11,12.11,0,0,1-3.81-4.61,16,16,0,0,1-1.38-7,13.47,13.47,0,0,1,1.56-6.74,12.64,12.64,0,0,1,4.21-4.48,18.25,18.25,0,0,1,6.16-2.49A34.5,34.5,0,0,1,487,75.62a34.34,34.34,0,0,1,4.17.76V74.6a13.76,13.76,0,0,0-.45-3.55,7.06,7.06,0,0,0-4.48-5,12.47,12.47,0,0,0-4.56-.71,39.88,39.88,0,0,0-6.83.53,29.91,29.91,0,0,0-5.06,1.24l-1.33-8.69A42.24,42.24,0,0,1,474.38,57,46.87,46.87,0,0,1,482.72,56.33Zm.89,40a39.59,39.59,0,0,0,7.54-.53V83.92a20.89,20.89,0,0,0-2.58-.54,24.86,24.86,0,0,0-3.72-.26,25.72,25.72,0,0,0-3.59.26,11.39,11.39,0,0,0-3.29,1,6,6,0,0,0-2.35,2,5.6,5.6,0,0,0-.88,3.24c0,2.55.8,4.3,2.39,5.28A12.34,12.34,0,0,0,483.61,96.33Z"/><path class="cls-1" d="M527,104.76a29.22,29.22,0,0,1-7.94-1.06,12.21,12.21,0,0,1-5-2.8,10,10,0,0,1-2.62-4.52,23.17,23.17,0,0,1-.75-6.17V36.82L521.43,35V88.17a15.08,15.08,0,0,0,.31,3.28,5.31,5.31,0,0,0,1.11,2.27A5,5,0,0,0,525,95.14a17.67,17.67,0,0,0,3.51.75Z"/><path class="cls-1" d="M546.64,75.58q2-2.13,4.35-4.57c1.54-1.63,3-3.25,4.52-4.88s2.89-3.19,4.22-4.7,2.47-2.82,3.41-4h12.69q-4.43,5-9.34,10.29t-9.87,10.38a62,62,0,0,1,5.58,5.37q2.92,3.15,5.66,6.69t5.14,7.1a72.09,72.09,0,0,1,4,6.56H564.56q-1.59-2.75-3.68-5.76t-4.48-5.86c-1.6-1.89-3.22-3.68-4.88-5.36a41.35,41.35,0,0,0-4.88-4.31v21.29H535.91V36.82L546.64,35Z"/><path class="cls-1" d="M596.61,96.16a14.12,14.12,0,0,0,6.21-1,3.63,3.63,0,0,0,1.95-3.51,4.53,4.53,0,0,0-2.08-3.81,30.21,30.21,0,0,0-6.88-3.28,53.36,53.36,0,0,1-5.36-2.27,18.3,18.3,0,0,1-4.22-2.79,11.43,11.43,0,0,1-2.79-3.86,13.44,13.44,0,0,1-1-5.54A12.11,12.11,0,0,1,587.12,60q4.7-3.67,12.77-3.68a39.5,39.5,0,0,1,7.81.75,38,38,0,0,1,5.59,1.47l-1.95,8.69a26.61,26.61,0,0,0-4.53-1.46,26.93,26.93,0,0,0-6.38-.67,11.13,11.13,0,0,0-5.33,1.11,3.64,3.64,0,0,0-2,3.41,5,5,0,0,0,.4,2,4.47,4.47,0,0,0,1.38,1.65,14.21,14.21,0,0,0,2.57,1.5,38.87,38.87,0,0,0,3.9,1.56,58.52,58.52,0,0,1,6.48,2.79,17.7,17.7,0,0,1,4.39,3.1,10.82,10.82,0,0,1,2.53,4,15.81,15.81,0,0,1,.8,5.32q0,6.66-4.93,10.07T596.52,105a38.87,38.87,0,0,1-9.84-1,52.27,52.27,0,0,1-5.24-1.64l1.87-9A47.67,47.67,0,0,0,589,95.27,29.53,29.53,0,0,0,596.61,96.16Z"/><path class="cls-1" d="M635.52,98a6.59,6.59,0,0,1-2.08,5,7.45,7.45,0,0,1-10.07,0,6.67,6.67,0,0,1-2-5,6.83,6.83,0,0,1,2-5.1,7.34,7.34,0,0,1,10.07,0A6.75,6.75,0,0,1,635.52,98Z"/><path class="cls-1" d="M274.09,187.1A34.2,34.2,0,0,1,261.67,185a24.57,24.57,0,0,1-9.31-6.25,28,28,0,0,1-5.85-10.07,42,42,0,0,1-2-13.66,36.89,36.89,0,0,1,2.35-13.66,29.5,29.5,0,0,1,6.43-10.07,27.15,27.15,0,0,1,9.58-6.25,32.31,32.31,0,0,1,11.79-2.13,38.37,38.37,0,0,1,6.92.58,46.66,46.66,0,0,1,5.41,1.29,22.38,22.38,0,0,1,3.82,1.5c1,.54,1.71.92,2.13,1.16l-3.29,9.13a26.42,26.42,0,0,0-6.07-2.53,29.67,29.67,0,0,0-8.56-1.19,20.09,20.09,0,0,0-7.45,1.37,16.11,16.11,0,0,0-6,4.13,19.32,19.32,0,0,0-4,6.92,30.14,30.14,0,0,0-1.42,9.66,34,34,0,0,0,1.11,9,19.8,19.8,0,0,0,3.42,7,15.57,15.57,0,0,0,5.85,4.62,20.26,20.26,0,0,0,8.52,1.64,32.29,32.29,0,0,0,9.67-1.2,38.63,38.63,0,0,0,5.76-2.26l3,9.13a14.66,14.66,0,0,1-2.89,1.42,40.77,40.77,0,0,1-4.3,1.38,42.24,42.24,0,0,1-5.59,1.06A51.46,51.46,0,0,1,274.09,187.1Z"/><path class="cls-1" d="M316,186.66a29.12,29.12,0,0,1-7.94-1.07,12.2,12.2,0,0,1-5-2.79,9.8,9.8,0,0,1-2.62-4.52,23.17,23.17,0,0,1-.75-6.17v-53.4l10.73-1.77v53.13a14.48,14.48,0,0,0,.31,3.28,5.27,5.27,0,0,0,1.11,2.26A4.82,4.82,0,0,0,314,177a17,17,0,0,0,3.5.76Z"/><path class="cls-1" d="M361.19,184.35q-3.1.79-8.07,1.64a65.62,65.62,0,0,1-10.91.84,24.2,24.2,0,0,1-9.36-1.59,15,15,0,0,1-6-4.44,17.38,17.38,0,0,1-3.24-6.78,36.08,36.08,0,0,1-1-8.65v-26h10.73v24.3q0,7.45,2.17,10.65t7.59,3.19c1.3,0,2.67-.06,4.12-.18a20.55,20.55,0,0,0,3.24-.44V139.38h10.73Z"/><path class="cls-1" d="M413.61,162.62A29,29,0,0,1,412,172.69a21.73,21.73,0,0,1-4.7,7.67,20.22,20.22,0,0,1-7.4,4.88,27.16,27.16,0,0,1-9.85,1.68,62.65,62.65,0,0,1-10.16-.79,65,65,0,0,1-8-1.78V118.71l10.73-1.77v24a25.83,25.83,0,0,1,4.57-1.78,23.05,23.05,0,0,1,14.72.93,17.16,17.16,0,0,1,6.43,4.93,22.63,22.63,0,0,1,3.95,7.67A33.83,33.83,0,0,1,413.61,162.62Zm-11-.18q0-6.83-2.71-10.82t-8.56-4a15.52,15.52,0,0,0-5,.8,15.3,15.3,0,0,0-3.77,1.77v26.7a29.52,29.52,0,0,0,3,.49,36.61,36.61,0,0,0,4.39.22,11.44,11.44,0,0,0,9.31-4Q402.62,169.54,402.62,162.44Z"/><path class="cls-1" d="M168.74,218.06c-42.58,13-118-5.22-148.7-50.46C-25.06,101,13.13,10,93.72.76c47-5.39,89.44,18.14,109.09,63.6,18.9,43.73,7,90.8-30.43,122.48-6.34,5.37-14,9.19-21.52,14,1.73,4.81,10.93,8.87,18,11.35A3.07,3.07,0,0,1,168.74,218.06ZM80.56,98.2a22.63,22.63,0,0,0-6.47-8.9A26.83,26.83,0,0,0,64,84.21,49,49,0,0,0,51,82.59q-3.41,0-8.13.28A76.27,76.27,0,0,0,33.73,84v54.6a63.91,63.91,0,0,0,8.9,1.18q4.53.28,7.92.28A46.91,46.91,0,0,0,64,138.24a27.17,27.17,0,0,0,10.15-5.34,23.42,23.42,0,0,0,6.43-9,32.73,32.73,0,0,0,2.27-12.7A33.71,33.71,0,0,0,80.56,98.2ZM46.35,93.59a25.49,25.49,0,0,1,2.59-.2c.91,0,1.8,0,2.67,0q9.47,0,13.83,4.53t4.37,13.34q0,8.41-4.57,13.19t-14,4.77c-1.08,0-2,0-2.79,0s-1.47-.07-2.06-.12ZM83.88,83.24V94h16.91v45.3h12.62V94h16.9V83.24Zm86.72,55.89a29.47,29.47,0,0,0,7.52-2.91l-3.48-10.11-2.34,1a19.46,19.46,0,0,1-3,1,36.45,36.45,0,0,1-3.88.77,33.36,33.36,0,0,1-4.93.32,17.78,17.78,0,0,1-7.45-1.41,13.26,13.26,0,0,1-5-3.85,15.28,15.28,0,0,1-2.75-5.78,29.28,29.28,0,0,1-.85-7.24,23.35,23.35,0,0,1,1.29-8.25,15.65,15.65,0,0,1,3.44-5.54,12.82,12.82,0,0,1,4.94-3.11,17.17,17.17,0,0,1,5.7-1,28.71,28.71,0,0,1,7.81,1,30,30,0,0,1,6,2.34l3.64-10.19c-.43-.27-1.13-.65-2.1-1.13a25,25,0,0,0-3.64-1.42,41.91,41.91,0,0,0-5.1-1.21,36.58,36.58,0,0,0-6.47-.53,32.72,32.72,0,0,0-11.4,1.94,25,25,0,0,0-9.06,5.71,26.66,26.66,0,0,0-6,9.22,33.13,33.13,0,0,0-2.18,12.41q0,14,7.15,21.6t20.83,7.6A44.06,44.06,0,0,0,170.6,139.13Z"/></svg>