<svg id="Слой_1" data-name="Слой 1" xmlns="http://www.w3.org/2000/svg" viewBox="0 0 635.52 225.16"><defs><style>.cls-1{fill:#fff;}</style></defs><path class="cls-1" d="M298.13,73.09A35.56,35.56,0,0,1,295.64,87a26.12,26.12,0,0,1-7.05,9.84,29.49,29.49,0,0,1-11,5.86,50,50,0,0,1-14.23,1.9q-3.74,0-8.43-.31a57.19,57.19,0,0,1-9-1.28V43.29A54.12,54.12,0,0,1,255,42.05q4.78-.27,8.51-.27a51.52,51.52,0,0,1,14.11,1.82,29.13,29.13,0,0,1,10.95,5.68A25.3,25.3,0,0,1,295.64,59,36,36,0,0,1,298.13,73.09Zm-41,21.56c.65.06,1.5.1,2.57.13s2.51,0,4.35,0q11.25,0,16.8-5.73t5.55-16q0-10.45-5.41-16.05t-16.77-5.59a64.06,64.06,0,0,0-7.09.27Z"/><path class="cls-1" d="M321.19,56.33a26.2,26.2,0,0,1,9,1.33A14.35,14.35,0,0,1,336,61.39a14,14,0,0,1,3.1,5.81,28.4,28.4,0,0,1,.93,7.49v28.12q-2.48.52-7.49,1.28a75.49,75.49,0,0,1-11.31.76,34.11,34.11,0,0,1-7.63-.8,16,16,0,0,1-5.9-2.57,12,12,0,0,1-3.81-4.61,16,16,0,0,1-1.38-7A13.57,13.57,0,0,1,304,83.12a12.67,12.67,0,0,1,4.22-4.48,18.25,18.25,0,0,1,6.16-2.49,34.5,34.5,0,0,1,11.05-.53,33.85,33.85,0,0,1,4.16.76V74.6a13.76,13.76,0,0,0-.44-3.55,7.43,7.43,0,0,0-1.55-3,7.33,7.33,0,0,0-2.93-2,12.5,12.5,0,0,0-4.57-.71,40,40,0,0,0-6.83.53,29.76,29.76,0,0,0-5.05,1.24l-1.33-8.69A42.24,42.24,0,0,1,312.85,57,46.87,46.87,0,0,1,321.19,56.33Zm.88,40a39.45,39.45,0,0,0,7.54-.53V83.92a20.65,20.65,0,0,0-2.57-.54,24.86,24.86,0,0,0-3.72-.26,26,26,0,0,0-3.6.26,11.42,11.42,0,0,0-3.28,1,6,6,0,0,0-2.35,2,5.6,5.6,0,0,0-.88,3.24c0,2.55.79,4.3,2.39,5.28A12.3,12.3,0,0,0,322.07,96.33Z"/><path class="cls-1" d="M348.05,45.24l10.74-1.77v14h16.5v9h-16.5V85.33q0,5.6,1.77,8t6,2.39a19.44,19.44,0,0,0,5.19-.62,34.57,34.57,0,0,0,3.59-1.15l1.78,8.51a38.63,38.63,0,0,1-4.88,1.64,26.21,26.21,0,0,1-7.1.85,22.6,22.6,0,0,1-8.29-1.33,12.29,12.29,0,0,1-5.28-3.86,15.47,15.47,0,0,1-2.75-6.12,38.21,38.21,0,0,1-.8-8.21Z"/><path class="cls-1" d="M400.36,56.33a26.24,26.24,0,0,1,9,1.33,14.35,14.35,0,0,1,5.81,3.73,14,14,0,0,1,3.1,5.81,28.4,28.4,0,0,1,.93,7.49v28.12c-1.66.35-4.15.78-7.49,1.28a75.68,75.68,0,0,1-11.31.76,34,34,0,0,1-7.63-.8,16,16,0,0,1-5.9-2.57A12,12,0,0,1,383,96.87a16,16,0,0,1-1.38-7,13.57,13.57,0,0,1,1.55-6.74,12.67,12.67,0,0,1,4.22-4.48,18.16,18.16,0,0,1,6.16-2.49,34.44,34.44,0,0,1,11-.53,34.34,34.34,0,0,1,4.17.76V74.6a14.21,14.21,0,0,0-.44-3.55,7.43,7.43,0,0,0-1.55-3,7.33,7.33,0,0,0-2.93-2,12.53,12.53,0,0,0-4.57-.71,40,40,0,0,0-6.83.53,29.76,29.76,0,0,0-5,1.24l-1.33-8.69A42.24,42.24,0,0,1,392,57,46.87,46.87,0,0,1,400.36,56.33Zm.88,40a39.52,39.52,0,0,0,7.54-.53V83.92a20.65,20.65,0,0,0-2.57-.54,24.86,24.86,0,0,0-3.72-.26,25.86,25.86,0,0,0-3.6.26,11.42,11.42,0,0,0-3.28,1,6,6,0,0,0-2.35,2,5.6,5.6,0,0,0-.89,3.24c0,2.55.8,4.3,2.4,5.28A12.28,12.28,0,0,0,401.24,96.33Z"/><path class="cls-1" d="M465.06,42.4v9.67H445.41v51.8h-10.5V52.07H416V42.4Z"/><path class="cls-1" d="M481.16,56.33a26.2,26.2,0,0,1,9,1.33,14.35,14.35,0,0,1,5.81,3.73A14,14,0,0,1,499,67.2a28.4,28.4,0,0,1,.93,7.49v28.12q-2.47.52-7.49,1.28a75.49,75.49,0,0,1-11.31.76,34.11,34.11,0,0,1-7.63-.8,16,16,0,0,1-5.9-2.57,12,12,0,0,1-3.81-4.61,16,16,0,0,1-1.38-7A13.57,13.57,0,0,1,464,83.12a12.67,12.67,0,0,1,4.22-4.48,18.25,18.25,0,0,1,6.16-2.49,34.5,34.5,0,0,1,11.05-.53,33.85,33.85,0,0,1,4.16.76V74.6a13.76,13.76,0,0,0-.44-3.55,7.43,7.43,0,0,0-1.55-3,7.33,7.33,0,0,0-2.93-2,12.5,12.5,0,0,0-4.57-.71,40,40,0,0,0-6.83.53,29.76,29.76,0,0,0-5.05,1.24l-1.33-8.69A42.24,42.24,0,0,1,472.82,57,46.87,46.87,0,0,1,481.16,56.33Zm.89,40a39.4,39.4,0,0,0,7.53-.53V83.92a20.65,20.65,0,0,0-2.57-.54,24.86,24.86,0,0,0-3.72-.26,26,26,0,0,0-3.6.26,11.42,11.42,0,0,0-3.28,1,6,6,0,0,0-2.35,2,5.6,5.6,0,0,0-.88,3.24c0,2.55.79,4.3,2.39,5.28A12.32,12.32,0,0,0,482.05,96.33Z"/><path class="cls-1" d="M525.46,104.76a29.22,29.22,0,0,1-7.94-1.06,12.21,12.21,0,0,1-5-2.8,9.89,9.89,0,0,1-2.62-4.52,23.17,23.17,0,0,1-.75-6.17V36.82L519.87,35V88.17a14.48,14.48,0,0,0,.31,3.28,5.31,5.31,0,0,0,1.11,2.27,5,5,0,0,0,2.17,1.42,17.67,17.67,0,0,0,3.51.75Z"/><path class="cls-1" d="M545.08,75.58q2-2.13,4.35-4.57c1.54-1.63,3-3.25,4.52-4.88s2.89-3.19,4.22-4.7,2.46-2.82,3.41-4h12.68q-4.43,5-9.33,10.29t-9.87,10.38a62,62,0,0,1,5.58,5.37q2.91,3.15,5.66,6.69t5.14,7.1a72.09,72.09,0,0,1,4,6.56H563q-1.59-2.75-3.68-5.76t-4.48-5.86c-1.6-1.89-3.22-3.68-4.88-5.36a41.35,41.35,0,0,0-4.88-4.31v21.29H534.35V36.82L545.08,35Z"/><path class="cls-1" d="M595.05,96.16a14.12,14.12,0,0,0,6.21-1,3.63,3.63,0,0,0,2-3.51,4.56,4.56,0,0,0-2.08-3.81,30.21,30.21,0,0,0-6.88-3.28,53.36,53.36,0,0,1-5.36-2.27,18.09,18.09,0,0,1-4.22-2.79,11.43,11.43,0,0,1-2.79-3.86,13.44,13.44,0,0,1-1-5.54A12.09,12.09,0,0,1,585.56,60q4.7-3.67,12.77-3.68a39.57,39.57,0,0,1,7.81.75,38.35,38.35,0,0,1,5.59,1.47l-2,8.69a26.17,26.17,0,0,0-4.52-1.46,27,27,0,0,0-6.39-.67,11.12,11.12,0,0,0-5.32,1.11,3.64,3.64,0,0,0-2,3.41,5,5,0,0,0,.4,2,4.37,4.37,0,0,0,1.38,1.65,13.87,13.87,0,0,0,2.57,1.5,38.87,38.87,0,0,0,3.9,1.56,58.52,58.52,0,0,1,6.48,2.79,17.89,17.89,0,0,1,4.39,3.1,10.66,10.66,0,0,1,2.52,4,15.56,15.56,0,0,1,.8,5.32q0,6.66-4.92,10.07T595,105a38.87,38.87,0,0,1-9.84-1,52.27,52.27,0,0,1-5.24-1.64l1.87-9a47.67,47.67,0,0,0,5.72,1.86A29.48,29.48,0,0,0,595.05,96.16Z"/><path class="cls-1" d="M634,98a6.63,6.63,0,0,1-2.08,5,7.45,7.45,0,0,1-10.07,0,6.67,6.67,0,0,1-2-5,6.83,6.83,0,0,1,2-5.1,7.34,7.34,0,0,1,10.07,0A6.78,6.78,0,0,1,634,98Z"/><path class="cls-1" d="M272.53,187.1A34.2,34.2,0,0,1,260.11,185a24.49,24.49,0,0,1-9.31-6.25,28.07,28.07,0,0,1-5.86-10.07,42,42,0,0,1-2-13.66,36.89,36.89,0,0,1,2.36-13.66,29.5,29.5,0,0,1,6.43-10.07,27.06,27.06,0,0,1,9.58-6.25,32.31,32.31,0,0,1,11.79-2.13,38.46,38.46,0,0,1,6.92.58,46.66,46.66,0,0,1,5.41,1.29,22.38,22.38,0,0,1,3.82,1.5c1,.54,1.71.92,2.12,1.16l-3.28,9.13A26.42,26.42,0,0,0,282,134a29.72,29.72,0,0,0-8.56-1.19,20.09,20.09,0,0,0-7.45,1.37,16,16,0,0,0-6,4.13,19.18,19.18,0,0,0-4,6.92,30.14,30.14,0,0,0-1.42,9.66,34,34,0,0,0,1.11,9,19.8,19.8,0,0,0,3.42,7,15.42,15.42,0,0,0,5.85,4.62,20.2,20.2,0,0,0,8.52,1.64,32.18,32.18,0,0,0,9.66-1.2,38.38,38.38,0,0,0,5.77-2.26l3,9.13a14.54,14.54,0,0,1-2.88,1.42,40.77,40.77,0,0,1-4.3,1.38,42.56,42.56,0,0,1-5.59,1.06A51.57,51.57,0,0,1,272.53,187.1Z"/><path class="cls-1" d="M314.39,186.66a29,29,0,0,1-7.93-1.07,12.31,12.31,0,0,1-5-2.79,9.87,9.87,0,0,1-2.61-4.52,23.15,23.15,0,0,1-.76-6.17v-53.4l10.74-1.77v53.13a14.48,14.48,0,0,0,.31,3.28,5.06,5.06,0,0,0,1.11,2.26A4.82,4.82,0,0,0,312.4,177a16.82,16.82,0,0,0,3.5.76Z"/><path class="cls-1" d="M359.63,184.35q-3.11.79-8.07,1.64a65.62,65.62,0,0,1-10.91.84,24.13,24.13,0,0,1-9.36-1.59,15,15,0,0,1-6-4.44A17.38,17.38,0,0,1,322,174a36.08,36.08,0,0,1-1-8.65v-26h10.73v24.3q0,7.45,2.17,10.65t7.59,3.19c1.3,0,2.67-.06,4.12-.18a20.55,20.55,0,0,0,3.24-.44V139.38h10.73Z"/><path class="cls-1" d="M412.05,162.62a29.22,29.22,0,0,1-1.64,10.07,21.73,21.73,0,0,1-4.7,7.67,20.18,20.18,0,0,1-7.41,4.88,27.11,27.11,0,0,1-9.84,1.68,62.56,62.56,0,0,1-10.16-.79,65.16,65.16,0,0,1-8-1.78V118.71L381,116.94v24a25.83,25.83,0,0,1,4.57-1.78,23.05,23.05,0,0,1,14.72.93,17.24,17.24,0,0,1,6.43,4.93,22.81,22.81,0,0,1,3.95,7.67A33.83,33.83,0,0,1,412.05,162.62Zm-11-.18q0-6.83-2.7-10.82t-8.56-4a15.47,15.47,0,0,0-5,.8A15.3,15.3,0,0,0,381,150.2v26.7a29,29,0,0,0,3,.49,36.49,36.49,0,0,0,4.39.22,11.45,11.45,0,0,0,9.31-4Q401.06,169.54,401.05,162.44Z"/><path class="cls-1" d="M167.18,218.06c-42.59,13-118-5.22-148.7-50.46C-26.62,101,11.57,10,92.16.76c47-5.39,89.44,18.14,109.09,63.6,18.9,43.73,7,90.8-30.43,122.48-6.34,5.37-14,9.19-21.53,14,1.73,4.81,10.93,8.87,18,11.35A3.07,3.07,0,0,1,167.18,218.06ZM79,98.2a22.63,22.63,0,0,0-6.47-8.9,26.83,26.83,0,0,0-10.07-5.09A49,49,0,0,0,49.4,82.59q-3.4,0-8.13.28A76.27,76.27,0,0,0,32.17,84v54.6a63.91,63.91,0,0,0,8.9,1.18Q45.6,140,49,140a47,47,0,0,0,13.43-1.78,27.25,27.25,0,0,0,10.15-5.34,23.42,23.42,0,0,0,6.43-9,32.73,32.73,0,0,0,2.27-12.7A33.71,33.71,0,0,0,79,98.2ZM44.79,93.59a25.49,25.49,0,0,1,2.59-.2c.91,0,1.8,0,2.66,0q9.47,0,13.84,4.53t4.36,13.34q0,8.41-4.57,13.19t-14,4.77c-1.08,0-2,0-2.79,0s-1.47-.07-2.06-.12ZM82.32,83.24V94H99.23v45.3h12.61V94h16.91V83.24ZM169,139.13a29.47,29.47,0,0,0,7.52-2.91l-3.48-10.11-2.35,1a19.32,19.32,0,0,1-3,1,37,37,0,0,1-3.88.77,33.41,33.41,0,0,1-4.94.32,17.77,17.77,0,0,1-7.44-1.41,13.18,13.18,0,0,1-5-3.85,15.13,15.13,0,0,1-2.75-5.78,29.28,29.28,0,0,1-.85-7.24,23.35,23.35,0,0,1,1.29-8.25,15.51,15.51,0,0,1,3.44-5.54,12.79,12.79,0,0,1,4.93-3.11,17.23,17.23,0,0,1,5.71-1,28.59,28.59,0,0,1,7.8,1,30.09,30.09,0,0,1,6,2.34l3.64-10.19c-.43-.27-1.13-.65-2.1-1.13A25,25,0,0,0,170,83.68a41.91,41.91,0,0,0-5.1-1.21,36.58,36.58,0,0,0-6.47-.53A32.82,32.82,0,0,0,147,83.88,25.18,25.18,0,0,0,138,89.59a26.64,26.64,0,0,0-6,9.22,33.12,33.12,0,0,0-2.19,12.41q0,14,7.16,21.6t20.83,7.6A44.06,44.06,0,0,0,169,139.13Z"/></svg>